<?xml version="1.0" encoding="utf-8"?>
<!-- Generator: Adobe Illustrator 16.0.4, SVG Export Plug-In . SVG Version: 6.00 Build 0)  -->
<!DOCTYPE svg PUBLIC "-//W3C//DTD SVG 1.1//EN" "http://www.w3.org/Graphics/SVG/1.1/DTD/svg11.dtd">
<svg version="1.1" id="Ebene_1" xmlns="http://www.w3.org/2000/svg" xmlns:xlink="http://www.w3.org/1999/xlink" x="0px" y="0px"
	 width="200px" height="200px" viewBox="0 0 200 200" enable-background="new 0 0 200 200" xml:space="preserve">
<rect fill="#F5F5F5" width="200" height="200"/>
<g>
	<path fill="#D8D8D8" d="M182.256,165.796c-0.836-4.677-1.896-9.007-3.172-13.001c-1.277-3.996-2.995-7.888-5.154-11.686
		c-2.158-3.793-4.631-7.028-7.427-9.705c-2.801-2.674-6.213-4.812-10.247-6.409c-4.035-1.597-8.488-2.396-13.359-2.396
		c-0.719,0-2.396,0.858-5.032,2.573c-2.636,1.722-5.612,3.638-8.927,5.75c-3.316,2.118-7.631,4.035-12.94,5.753
		c-5.312,1.719-10.646,2.576-15.996,2.576c-5.352,0-10.684-0.857-15.996-2.576c-5.314-1.718-9.629-3.635-12.94-5.753
		c-3.319-2.112-6.291-4.028-8.927-5.75c-2.636-1.715-4.312-2.573-5.033-2.573c-4.876,0-9.329,0.799-13.361,2.396
		c-4.033,1.598-7.451,3.735-10.242,6.409c-2.801,2.677-5.273,5.912-7.43,9.705c-2.157,3.798-3.877,7.688-5.153,11.686
		c-1.278,3.994-2.337,8.324-3.177,13.001c-0.837,4.671-1.398,9.024-1.677,13.06c-0.279,4.033-0.419,8.17-0.419,12.399
		c0,3.14,0.345,6.04,0.969,8.745h166.771c0.625-2.705,0.972-5.605,0.972-8.745c0-4.229-0.141-8.366-0.422-12.399
		C183.654,174.82,183.096,170.467,182.256,165.796z"/>
	<path fill="#D8D8D8" d="M100,130.268c12.7,0,23.544-4.494,32.533-13.479c8.984-8.988,13.479-19.83,13.479-32.532
		c0-12.702-4.494-23.543-13.479-32.531C123.544,42.738,112.7,38.243,100,38.243s-23.547,4.495-32.531,13.481
		c-8.989,8.988-13.481,19.829-13.481,32.531c0,12.702,4.492,23.544,13.481,32.532C76.453,125.773,87.3,130.268,100,130.268z"/>
</g>
</svg>
